<?xml version="1.0" encoding="utf-8"?>
<svg version="1.1" id="Layer_1"
xmlns="http://www.w3.org/2000/svg"
xmlns:xlink="http://www.w3.org/1999/xlink"
xmlns:author="http://www.sothink.com"
width="175px" height="175px"
xml:space="preserve">
<g id="0" transform="matrix(1, 0, 0, 1, 0, 0)">
<path style="fill:#CCCCCC;fill-opacity:1" d="M174.9,174.9L0 174.9L0 0L174.9 0L174.9 174.9M111.75,87.45Q111.75 97.5 104.6 104.6Q97.5 111.75 87.45 111.75Q77.4 111.75 70.25 104.6Q63.15 97.5 63.15 87.45Q63.15 77.4 70.25 70.25Q77.4 63.15 87.45 63.15Q97.5 63.15 104.6 70.25Q111.75 77.4 111.75 87.45M87.45,19.95Q59.5 19.95 39.7 39.7Q19.95 59.5 19.95 87.45Q19.95 115.4 39.7 135.15Q59.5 154.95 87.45 154.95Q115.4 154.95 135.15 135.15Q154.95 115.4 154.95 87.45Q154.95 59.5 135.15 39.7Q115.4 19.95 87.45 19.95" />
<path style="fill:#B0B0B0;fill-opacity:1" d="M104.6,70.25Q97.5 63.15 87.45 63.15Q77.4 63.15 70.25 70.25Q63.15 77.4 63.15 87.45Q63.15 97.5 70.25 104.6Q77.4 111.75 87.45 111.75Q97.5 111.75 104.6 104.6Q111.75 97.5 111.75 87.45Q111.75 77.4 104.6 70.25M135.15,39.7Q154.95 59.5 154.95 87.45Q154.95 115.4 135.15 135.15Q115.4 154.95 87.45 154.95Q59.5 154.95 39.7 135.15Q19.95 115.4 19.95 87.45Q19.95 59.5 39.7 39.7Q59.5 19.95 87.45 19.95Q115.4 19.95 135.15 39.7" />
<path style="fill:none;stroke-width:0.05;stroke-linecap:round;stroke-linejoin:round;stroke-miterlimit:3;stroke:#999999;stroke-opacity:1" d="M174.9,174.9L0 174.9L0 0L174.9 0L174.9 174.9z" />
<path style="fill:none;stroke-width:0.05;stroke-linecap:round;stroke-linejoin:round;stroke-miterlimit:3;stroke:#666666;stroke-opacity:1" d="M111.75,87.45Q111.75 97.5 104.6 104.6Q97.5 111.75 87.45 111.75Q77.4 111.75 70.25 104.6Q63.15 97.5 63.15 87.45Q63.15 77.4 70.25 70.25Q77.4 63.15 87.45 63.15Q97.5 63.15 104.6 70.25Q111.75 77.4 111.75 87.45M135.15,39.7Q154.95 59.5 154.95 87.45Q154.95 115.4 135.15 135.15Q115.4 154.95 87.45 154.95Q59.5 154.95 39.7 135.15Q19.95 115.4 19.95 87.45Q19.95 59.5 39.7 39.7Q59.5 19.95 87.45 19.95Q115.4 19.95 135.15 39.7" />
</g>
</svg>
